# xmcd
#
# Track frame offsets: 
#        150
#        14362
#        29752
#        44187
#        58402
#        77892
#        90245
#        105662
#        118957
#        131405
#
# Disc length: 1961 seconds
#
# Revision: 0
# Processed by: cddbd v1.4PL0 Copyright (c) Steve Scherf et al.
# Submitted via: ExactAudioCopy v0.90b3
#
DISCID=8d07a70a
DTITLE=Various Artist - Hank Williams You Wrote My Life (A Tribute To
DTITLE=Hank Williams)
DYEAR=1900
DGENRE=Country
TTITLE0=Hank Williams, You Wrote My Life (Moe Bandy)
TTITLE1=Jambalaya (On The Bayou) (The Nitty Gritty Dirt Band)
TTITLE2=The Ride (David Allan Coe) 
TTITLE3=Standing In The Shadows (Hank Williams, Jr.)
TTITLE4=I Feel Like Hank Williams Tonight (Jerry Jeff Walker)
TTITLE5=I'm So Lonesome I Could Cry (B.J. Thomas)
TTITLE6=The Night Hank Williams Came To Town (Johnny Cash)
TTITLE7=You Win Again (Jerry Lee Lewis)
TTITLE8=I Can't Help It (Linda Ronstadt)
TTITLE9=If You Don't Like Hank Williams (Kris Kristofferson)
EXTD=
EXTT0=
EXTT1=
EXTT2=
EXTT3=
EXTT4=
EXTT5=
EXTT6=
EXTT7=
EXTT8=
EXTT9=
PLAYORDER=
